<?xml version="1.0" standalone="no"?>
<!DOCTYPE svg PUBLIC "-//W3C//DTD SVG 20010904//EN"
 "http://www.w3.org/TR/2001/REC-SVG-20010904/DTD/svg10.dtd">
<svg version="1.0" xmlns="http://www.w3.org/2000/svg"
 width="1016.000000pt" height="1016.000000pt" viewBox="0 0 1016.000000 1016.000000"
 preserveAspectRatio="xMidYMid meet">
<metadata>
Created by potrace 1.11, written by Peter Selinger 2001-2013
</metadata>
<g transform="translate(0.000000,1016.000000) scale(0.100000,-0.100000)"
fill="#000000" stroke="none">
<path d="M5685 10150 c-35 -14 -63 -53 -81 -115 -22 -74 -20 -111 9 -152 23
-35 38 -42 129 -68 69 -18 108 -61 108 -117 0 -19 -32 -154 -70 -299 -39 -145
-72 -273 -75 -284 -2 -11 -34 -132 -71 -270 -127 -477 -154 -580 -159 -599
-14 -58 -98 -375 -105 -396 -4 -14 -30 -108 -56 -210 -26 -102 -50 -188 -53
-192 -3 -4 -42 -9 -86 -12 -106 -8 -155 -14 -245 -32 -41 -8 -86 -17 -100 -20
-55 -11 -216 -57 -298 -85 -96 -34 -328 -135 -352 -153 -8 -7 -28 -18 -45 -26
-16 -8 -73 -42 -125 -74 -267 -166 -480 -362 -704 -646 -29 -37 -146 -217
-146 -225 0 -5 -6 -16 -14 -24 -38 -45 -150 -286 -205 -445 -55 -156 -105
-367 -126 -526 -24 -176 -24 -462 -1 -645 15 -121 19 -145 27 -145 5 0 9 6 9
14 0 17 49 169 82 256 91 236 230 466 403 670 67 78 245 250 325 312 124 96
277 193 411 259 65 33 121 59 126 59 4 0 21 7 37 15 28 15 237 85 311 105 35
9 43 17 64 63 90 193 281 385 496 496 211 110 488 144 730 91 329 -72 614
-294 758 -592 83 -170 115 -306 115 -491 l1 -118 85 -87 c293 -299 500 -671
605 -1089 11 -43 22 -96 26 -118 3 -22 10 -67 15 -100 29 -173 32 -501 6 -642
-2 -10 -7 -38 -11 -63 -11 -69 -12 -74 -30 -158 -12 -54 -14 -63 -20 -75 -14
-28 71 74 124 148 202 283 374 680 426 980 2 17 7 41 10 55 3 14 7 39 10 55 3
17 7 44 10 60 26 155 27 532 1 695 -2 14 -7 48 -11 75 -23 169 -92 405 -177
605 -191 449 -530 862 -926 1125 -39 26 -72 53 -72 59 0 10 107 422 156 599
14 49 38 141 55 205 16 65 41 159 55 210 14 51 27 100 29 111 2 10 12 49 23
87 10 38 32 116 47 174 15 58 40 152 55 210 16 58 59 220 96 360 36 140 73
267 81 281 34 57 89 70 187 45 61 -16 98 -13 134 10 54 36 91 195 58 247 -10
14 -28 32 -41 41 -20 13 -146 51 -255 76 -19 5 -114 29 -210 55 -96 26 -183
48 -193 50 -9 2 -21 6 -25 9 -5 3 -22 8 -38 11 -16 3 -63 14 -104 26 -41 11
-91 24 -110 29 -19 4 -62 15 -95 24 -141 39 -290 78 -306 81 -10 2 -52 13 -94
25 -42 12 -84 23 -93 25 -9 1 -42 10 -73 19 -31 9 -65 19 -75 21 -11 2 -80 20
-154 40 -138 36 -170 40 -205 25z m505 -612 c65 -19 80 -28 80 -43 0 -14 -84
-336 -131 -505 -12 -41 -23 -83 -24 -92 -2 -10 -15 -59 -29 -110 -14 -51 -34
-127 -45 -168 -11 -41 -34 -129 -51 -195 -18 -66 -34 -127 -35 -135 -8 -31
-105 -396 -115 -430 -6 -19 -34 -126 -64 -238 -29 -112 -57 -207 -62 -212 -9
-9 -100 9 -157 32 -35 14 -34 17 16 203 20 72 47 175 62 230 14 55 37 142 51
193 14 51 27 100 29 110 2 9 52 197 110 417 59 220 108 407 110 415 2 8 24 93
50 188 25 94 48 180 50 190 8 37 44 152 50 162 7 11 39 8 105 -12z"/>
<path d="M5440 6495 c-222 -44 -425 -177 -552 -360 -62 -92 -121 -229 -134
-313 -3 -21 -7 -45 -10 -54 -6 -21 -5 -213 1 -248 17 -98 37 -162 76 -245 143
-297 420 -478 751 -490 101 -4 264 19 316 44 199 94 251 129 343 228 66 72
122 154 155 230 30 68 70 220 75 283 36 516 -355 939 -866 938 -49 0 -119 -6
-155 -13z"/>
<path d="M2470 5767 c-149 -194 -250 -355 -358 -572 -41 -82 -76 -152 -78
-154 -2 -2 -77 12 -167 30 -149 29 -168 31 -198 18 -212 -87 -382 -767 -230
-919 19 -20 64 -39 161 -69 196 -60 178 -47 171 -128 -7 -100 -6 -454 2 -554
l7 -86 -142 -47 c-79 -26 -154 -53 -167 -59 -29 -14 -57 -58 -72 -112 -11 -39
-14 -196 -4 -245 2 -13 7 -42 10 -63 21 -138 122 -377 192 -454 21 -23 57 -50
80 -61 46 -20 34 -21 321 40 29 6 54 9 56 7 2 -2 29 -54 59 -115 68 -136 138
-256 229 -392 l69 -102 -108 -121 c-111 -124 -138 -172 -122 -216 5 -13 6 -23
4 -23 -11 0 40 -109 79 -169 55 -83 84 -118 166 -198 193 -187 389 -272 474
-206 32 26 191 169 217 197 17 18 20 17 96 -36 114 -80 292 -183 423 -245 63
-30 116 -56 117 -57 1 -1 -7 -40 -17 -86 -10 -47 -21 -96 -24 -110 -2 -14 -9
-46 -14 -71 -5 -26 -8 -58 -6 -73 7 -67 111 -156 251 -215 58 -25 160 -59 185
-62 4 0 31 -7 60 -15 83 -23 293 -28 354 -8 82 28 96 47 153 225 48 147 54
159 74 154 94 -20 485 -20 643 0 34 4 43 2 49 -12 4 -10 29 -83 56 -162 26
-78 56 -150 66 -158 24 -19 74 -41 109 -48 35 -6 211 -8 222 -2 4 3 28 8 54
11 85 12 221 56 324 106 122 59 197 125 214 188 6 23 9 46 6 51 -3 4 -8 22
-11 39 -3 17 -16 81 -29 144 -14 62 -24 114 -22 115 1 1 54 28 117 59 137 67
269 144 395 230 52 35 99 64 104 64 6 0 23 -12 38 -28 42 -41 174 -156 202
-175 84 -58 275 30 458 212 125 124 189 214 231 325 36 97 27 142 -46 222 -15
17 -58 63 -95 103 l-67 72 72 109 c111 168 132 204 210 362 81 166 71 158 179
133 35 -8 79 -17 98 -20 19 -3 43 -8 52 -11 81 -24 143 4 211 96 50 68 119
228 143 331 42 180 45 381 6 455 -26 51 -59 68 -230 120 l-123 38 8 110 c12
177 5 515 -11 603 -2 10 -9 61 -16 113 -15 121 -23 134 -40 68 -24 -94 -88
-284 -119 -353 -147 -326 -241 -486 -415 -709 -95 -121 -125 -155 -250 -279
-110 -110 -236 -218 -342 -293 -38 -26 -71 -51 -74 -54 -7 -8 -119 -80 -124
-80 -2 0 -33 -18 -68 -39 -230 -139 -545 -264 -848 -335 -128 -30 -170 -37
-298 -51 -50 -6 -65 -12 -74 -29 -19 -36 -89 -118 -156 -184 -108 -105 -248
-191 -397 -245 -61 -22 -92 -30 -205 -52 -14 -3 -68 -7 -120 -9 -323 -12 -622
109 -849 344 -137 142 -257 379 -287 565 -4 28 -9 53 -10 58 -1 4 -2 23 -3 42
-1 30 -9 40 -58 77 -161 118 -346 290 -484 449 -76 87 -177 219 -204 267 -11
17 -23 32 -27 32 -4 0 -8 4 -8 9 0 6 -13 29 -29 53 -81 121 -215 389 -276 553
-50 133 -106 321 -119 397 -3 15 -7 31 -10 36 -3 4 -7 30 -11 56 -3 27 -7 51
-9 55 -2 3 -6 29 -10 56 -3 28 -8 59 -10 71 -26 128 -27 626 -2 759 2 11 7 45
11 75 4 30 18 107 32 170 13 63 27 127 30 143 3 15 4 27 2 27 -2 -1 -29 -33
-59 -73z"/>
<path d="M4693 3509 c-116 -15 -256 -70 -367 -144 -171 -113 -317 -331 -353
-524 -2 -14 -6 -28 -9 -33 -12 -19 -12 -229 1 -298 61 -338 303 -603 634 -692
97 -26 278 -33 376 -13 354 70 622 338 690 690 14 70 14 250 0 330 -9 48 -50
165 -78 220 -115 228 -354 410 -598 456 -76 14 -224 18 -296 8z"/>
</g>
</svg>
